<?xml version="1.0" encoding="UTF-8" standalone="no"?>
<svg width="53px" height="60px" viewBox="0 0 53 60" version="1.1" xmlns="http://www.w3.org/2000/svg" xmlns:xlink="http://www.w3.org/1999/xlink">
    <!-- Generator: sketchtool 3.8.3 (29802) - http://www.bohemiancoding.com/sketch -->
    <title>37FCD36F-4472-4CF7-95F8-FD613BBC63B2</title>
    <desc>Created with sketchtool.</desc>
    <defs></defs>
    <g id="Dashboard" stroke="none" stroke-width="1" fill="none" fill-rule="evenodd">
        <g id="dashboard" transform="translate(-32.000000, -61.000000)">
            <g id="Group" transform="translate(32.000000, 61.000000)">
                <g id="dcode_logo">
                    <path d="M16.2286822,21.9298262 L16.2286822,0.718439959 L0.205426357,17.0604368 L0.205426357,17.1509775 C3.60551199,18.0760782 10.0205726,19.878095 16.2286822,21.9298262 Z" id="Combined-Shape" fill="#91D54B"></path>
                    <path d="M18.508651,24.9664101 C19.0756973,25.1530009 19.6411921,25.3420611 20.2019109,25.532963 C27.2859066,27.8796578 33.2265565,32.0796426 34.4405028,39.4766826 C34.4385919,39.4776805 34.4365463,39.4781831 34.4343646,39.4781831 C26.283287,37.5695384 19.1486572,35.1191561 18.4883721,34.8903663 L18.4883721,25.1474157 L18.508651,24.9664101 Z" id="Combined-Shape" fill="#9ACD66"></path>
                    <path d="M16.0232558,24.0369437 C8.24765819,21.4816806 0.205426357,19.3953929 0.205426357,19.3953929 L0.205426357,50.9630403 L16.0232558,36.28887 L16.0232558,24.0369437 Z" id="Combined-Shape" fill="#9ACD66"></path>
                    <path d="M-4.34707825e-13,54.0129538 C0.746099172,54.2487148 10.9908385,57.4694026 19.9302869,59.3991976 C31.9031773,60.1336736 34.462824,53.3951781 34.7104741,44.44143 C34.7386097,43.4241945 34.6821905,42.4573846 34.5482698,41.5385618 C26.1940044,39.4225143 18.4610875,37.0716602 18.4610875,37.0716602 L18.4610875,36.9337802 L-4.33708625e-13,54.0129538 Z" id="Combined-Shape-Copy" fill="#76A942"></path>
                    <path d="M33.0736434,58.179487 L33.0736434,58.2192127 L51.1979646,41.4053145 C48.9307221,43.423724 45.3641031,44.2031862 39.7239058,42.9970821 C38.8182394,42.7849931 37.8990005,42.5617501 36.9763959,42.3312144 C36.9776992,42.5643839 36.9753489,42.7999342 36.9692818,43.0378891 C36.813318,49.1549031 36.3962446,55.0521705 33.0736434,58.179487 Z M51.5610863,41.0604595 L51.5620155,41.0675852 L51.4311529,41.1889862 C51.4749774,41.1466333 51.5182864,41.103789 51.5610863,41.0604595 Z" id="Combined-Shape" fill="#547D2B"></path>
                    <path d="M18.4883721,22.4958479 L18.4883721,0.206333967 C18.4883721,0.206333967 29.1643655,2.90827875 38.654795,6.13967915 C47.9467483,9.21807956 52.9858067,15.0716808 52.9858067,26.0168428 C52.9858067,35.6091102 51.3706539,44.8024414 36.89134,40.1935332 C36.8807552,40.1910544 36.8701717,40.1885757 36.8595898,40.186097 C35.8771816,31.0377212 28.838463,25.9313779 20.3786934,23.1286778 C19.7526389,22.9155122 19.1213955,22.7043477 18.4883721,22.4958479 Z" id="Combined-Shape-Copy-2" fill="#6F9C41"></path>
                </g>
            </g>
        </g>
    </g>
</svg>