<?xml version="1.0" encoding="UTF-8" standalone="no"?>
<svg width="20px" height="20px" viewBox="0 0 20 20" version="1.1" xmlns="http://www.w3.org/2000/svg" xmlns:xlink="http://www.w3.org/1999/xlink">
    <!-- Generator: sketchtool 3.8.3 (29802) - http://www.bohemiancoding.com/sketch -->
    <title>6CF74AEB-737D-40B8-ACA3-1B86CABED619</title>
    <desc>Created with sketchtool.</desc>
    <defs>
        <rect id="path-1" x="0" y="0" width="32" height="32"></rect>
    </defs>
    <g id="Dashboard" stroke="none" stroke-width="1" fill="none" fill-rule="evenodd">
        <g id="track" transform="translate(-1114.000000, -552.000000)">
            <g id="Group-14" transform="translate(1108.000000, 546.000000)">
                <g id="selected">
                    <mask id="mask-2" fill="white">
                        <use xlink:href="#path-1"></use>
                    </mask>
                    <g id="Mask"></g>
                    <path d="M13.7777778,21.5555556 L8.22222222,16 L9.78888889,14.4333333 L13.7777778,18.4111111 L22.2111111,9.97777778 L23.7777778,11.5555556 L13.7777778,21.5555556 Z M23.7777778,6 L8.22222222,6 C6.98888889,6 6,7 6,8.22222222 L6,23.7777778 C6,25 6.98888889,26 8.22222222,26 L23.7777778,26 C25.0111111,26 26,25 26,23.7777778 L26,8.22222222 C26,7 25.0111111,6 23.7777778,6 L23.7777778,6 Z" fill="#003F72" mask="url(#mask-2)"></path>
                </g>
            </g>
        </g>
    </g>
</svg>