<?xml version="1.0" encoding="UTF-8" standalone="no"?>
<svg width="20px" height="20px" viewBox="0 0 20 20" version="1.1" xmlns="http://www.w3.org/2000/svg" xmlns:xlink="http://www.w3.org/1999/xlink">
    <!-- Generator: sketchtool 3.8.3 (29802) - http://www.bohemiancoding.com/sketch -->
    <title>9EBF469D-51E7-4D2E-A52E-F9225E3AAF33</title>
    <desc>Created with sketchtool.</desc>
    <defs>
        <rect id="path-1" x="0" y="0" width="30" height="30"></rect>
    </defs>
    <g id="Dashboard" stroke="none" stroke-width="1" fill="none" fill-rule="evenodd">
        <g id="dashboard" transform="translate(-1383.000000, -37.000000)">
            <g id="settings" transform="translate(1378.000000, 32.000000)">
                <mask id="mask-2" fill="white">
                    <use xlink:href="#path-1"></use>
                </mask>
                <g id="Mask"></g>
                <path d="M16.4104596,25 L13.5895404,25 L12.7754886,22.5594295 C12.2371896,22.4014791 11.7184363,22.1864765 11.2266244,21.9181194 L8.92657158,23.0681458 L6.93132594,21.0734284 L8.08188061,18.7728473 C7.81352351,18.2820919 7.59904913,17.7633386 7.44057052,17.2239831 L5,16.4104596 L5,13.5895404 L7.44057052,12.7760169 C7.59904913,12.2366614 7.81352351,11.7179081 8.08188061,11.2271527 L6.93132594,8.92657158 L8.92657158,6.93132594 L11.2266244,8.08188061 C11.7184363,7.81352351 12.2371896,7.59852087 12.7754886,7.44057052 L13.5895404,5 L16.4104596,5 L17.2245114,7.44057052 C17.7622821,7.59852087 18.2815637,7.81352351 18.7733756,8.08188061 L21.0734284,6.93132594 L23.0686741,8.92657158 L21.9181194,11.2271527 C22.1864765,11.7179081 22.4009509,12.2366614 22.5594295,12.7760169 L25,13.5895404 L25,16.4104596 L22.5594295,17.2239831 C22.4009509,17.7633386 22.1864765,18.2820919 21.9181194,18.7728473 L23.0686741,21.0734284 L21.0734284,23.0681458 L18.7733756,21.9181194 C18.2815637,22.1864765 17.7622821,22.4014791 17.2245114,22.5594295 L16.4104596,25 Z M15,19.7173798 C12.3988378,19.7173798 10.2826202,17.6011622 10.2826202,15 C10.2826202,12.3988378 12.3988378,10.2826202 15,10.2826202 C17.6011622,10.2826202 19.7173798,12.3988378 19.7173798,15 C19.7173798,17.6011622 17.6011622,19.7173798 15,19.7173798 Z" id="Fill-46" fill="#95A5A6" mask="url(#mask-2)"></path>
            </g>
        </g>
    </g>
</svg>