<?xml version="1.0" encoding="UTF-8" standalone="no"?>
<svg width="20px" height="24px" viewBox="0 0 20 24" version="1.1" xmlns="http://www.w3.org/2000/svg" xmlns:xlink="http://www.w3.org/1999/xlink">
    <!-- Generator: sketchtool 3.8.3 (29802) - http://www.bohemiancoding.com/sketch -->
    <title>CCBB918B-99CC-4180-94B9-49AD74734E3C</title>
    <desc>Created with sketchtool.</desc>
    <defs>
        <rect id="path-1" x="0" y="0" width="32" height="32"></rect>
    </defs>
    <g id="Dashboard" stroke="none" stroke-width="1" fill="none" fill-rule="evenodd" opacity="0.5">
        <g id="dashboard" transform="translate(-36.000000, -294.000000)">
            <g id="view_project" transform="translate(30.000000, 290.000000)">
                <mask id="mask-2" fill="white">
                    <use xlink:href="#path-1"></use>
                </mask>
                <g id="Mask"></g>
                <path d="M8,8 L8,26 L24,26 L24,28 L8,28 C6.895,28 6,27.105 6,26 L6,8 L8,8 Z M12,4 L20,4 L26,10 L26,22 C26,23.105 25.105,24 24,24 L12,24 C10.89,24 10,23.1 10,22 L10,6 C10,4.895 10.895,4 12,4 L12,4 Z M19,11 L24.5,11 L19,5.5 L19,11 L19,11 Z" id="Page-1" fill="#95A5A6" mask="url(#mask-2)"></path>
            </g>
        </g>
    </g>
</svg>